<?xml version="1.0" standalone="no"?>
<!DOCTYPE svg PUBLIC "-//W3C//DTD SVG 20010904//EN"
 "http://www.w3.org/TR/2001/REC-SVG-20010904/DTD/svg10.dtd">
<svg version="1.0" xmlns="http://www.w3.org/2000/svg"
 width="202.000000pt" height="249.000000pt" viewBox="0 0 202.000000 249.000000"
 preserveAspectRatio="xMidYMid meet">

<g transform="translate(0.000000,249.000000) scale(0.100000,-0.100000)"
fill="#000000" stroke="none">
<path d="M440 2250 l0 -40 -119 0 c-88 0 -121 -4 -130 -14 -8 -9 -11 -91 -9
-277 l3 -264 228 -3 227 -2 0 -259 0 -259 -127 -3 c-146 -4 -185 -18 -237 -83
l-31 -38 -3 -174 -3 -174 -24 0 c-33 0 -55 -26 -55 -66 0 -32 -2 -34 -35 -34
l-35 0 0 -135 0 -135 35 0 c33 0 35 -2 35 -34 0 -48 17 -57 97 -54 l68 3 3
219 c3 233 2 236 -45 236 -23 0 -23 1 -23 148 0 121 4 154 19 187 38 83 89
105 246 105 l115 0 0 -95 0 -95 135 0 135 0 0 -125 c0 -125 0 -125 -24 -125
-44 0 -47 -14 -44 -241 l3 -214 68 -3 c80 -3 97 6 97 54 0 32 2 34 35 34 l35
0 0 135 0 135 -34 0 c-34 0 -35 1 -38 43 -3 38 -6 43 -35 52 l-33 9 0 123 0
123 80 0 80 0 0 -75 c0 -73 -1 -75 -24 -75 -32 0 -56 -35 -56 -82 l0 -38 260
0 260 0 0 48 c0 55 -12 72 -52 72 l-28 0 0 75 0 75 235 0 235 0 0 455 0 455
-467 2 -468 3 -3 185 c-2 132 -6 186 -15 192 -6 4 -29 8 -49 8 -21 0 -38 5
-38 10 0 6 -20 10 -45 10 -25 0 -45 -4 -45 -10 0 -5 -16 -10 -35 -10 -34 0
-35 1 -35 40 l0 40 -145 0 -145 0 0 -40z m268 -12 l3 -28 -120 0 -121 0 0 30
0 31 118 -3 117 -3 3 -27z m262 -313 l0 -255 -383 2 -382 3 -3 253 -2 252 385
0 385 0 0 -255z m920 -555 l0 -420 -474 0 c-499 0 -486 -1 -486 41 0 5 185 9
455 9 l455 0 0 365 0 365 -420 0 c-365 0 -421 2 -426 15 -4 8 -4 22 0 30 5 13
64 15 451 15 l445 0 0 -420z m-98 -5 l-3 -325 -444 0 c-428 0 -445 1 -455 19
-5 11 -35 32 -65 46 l-55 27 0 259 0 259 106 0 c97 0 106 2 111 20 5 20 14 20
407 20 l401 0 -3 -325z m-1062 25 l0 -260 -25 0 -25 0 0 260 0 260 25 0 25 0
0 -260z m0 -340 l0 -49 83 -3 c76 -3 82 -5 85 -25 3 -23 2 -23 -107 -23 l-111
0 0 75 c0 73 1 75 25 75 23 0 25 -3 25 -50z m98 20 c17 -11 32 -22 32 -25 0
-3 -20 -5 -45 -5 -41 0 -45 2 -45 25 0 30 14 31 58 5z m592 -240 c0 -68 -1
-70 -25 -70 -23 0 -25 3 -25 50 l0 51 -87 -3 -88 -3 -3 -47 c-3 -40 -6 -48
-23 -48 -17 0 -19 7 -19 70 l0 70 135 0 135 0 0 -70z m-90 -40 c0 -29 -1 -30
-50 -30 -46 0 -50 2 -50 23 0 33 7 37 57 37 41 0 43 -1 43 -30z m170 -90 c0
-19 -7 -20 -220 -20 -213 0 -220 1 -220 20 0 19 7 20 220 20 213 0 220 -1 220
-20z m-1192 -272 l2 -198 -25 0 -25 0 0 155 c0 131 -2 155 -15 155 -13 0 -15
-24 -15 -155 0 -148 -1 -155 -20 -155 -19 0 -20 7 -20 200 l0 201 58 -3 57 -3
3 -197z m672 2 c0 -193 -1 -200 -20 -200 -19 0 -20 7 -20 155 0 131 -2 155
-15 155 -13 0 -15 -24 -15 -155 0 -148 -1 -155 -20 -155 -19 0 -20 7 -20 200
l0 200 55 0 55 0 0 -200z m-820 0 c0 -103 -1 -110 -20 -110 -19 0 -20 7 -20
104 0 91 2 105 18 109 9 3 18 5 20 6 1 0 2 -48 2 -109z m890 -5 c0 -98 -1
-105 -20 -105 -19 0 -20 7 -20 105 0 98 1 105 20 105 19 0 20 -7 20 -105z"/>
<path d="M788 2149 c-24 -13 -23 -56 1 -69 25 -13 92 -13 125 0 32 12 36 54 7
70 -25 13 -111 13 -133 -1z m125 -34 c-4 -15 -115 -13 -121 3 -3 10 11 12 59
10 36 -2 63 -7 62 -13z"/>
<path d="M240 2120 c0 -5 23 -10 50 -10 28 0 50 5 50 10 0 6 -22 10 -50 10
-27 0 -50 -4 -50 -10z"/>
<path d="M489 2097 c-133 -71 -140 -266 -12 -348 38 -23 58 -29 105 -29 131 0
219 97 204 224 -16 140 -171 219 -297 153z m200 -35 c51 -41 73 -84 73 -141 0
-153 -176 -237 -289 -138 -77 67 -86 184 -20 256 61 67 169 77 236 23z"/>
<path d="M535 2046 c-108 -49 -114 -201 -11 -250 94 -45 199 22 198 125 -1 43
-29 97 -61 116 -32 20 -93 24 -126 9z m112 -36 c42 -25 62 -85 43 -130 -40
-96 -182 -93 -209 5 -28 102 76 181 166 125z"/>
<path d="M536 1979 c-14 -11 -26 -29 -26 -40 0 -26 15 -24 34 6 9 14 23 25 31
25 8 0 15 7 15 15 0 21 -23 19 -54 -6z"/>
<path d="M240 2070 c0 -5 11 -10 25 -10 14 0 25 5 25 10 0 6 -11 10 -25 10
-14 0 -25 -4 -25 -10z"/>
</g>
</svg>
